<svg xmlns="http://www.w3.org/2000/svg" width="1024" height="1024" viewBox="0 0 1024 1024">
  <defs>
    <linearGradient id="sky" x1="0%" y1="0%" x2="100%" y2="100%">
      <stop offset="0%" stop-color="#f7d794" />
      <stop offset="50%" stop-color="#f3a683" />
      <stop offset="100%" stop-color="#778beb" />
    </linearGradient>
    <linearGradient id="ground" x1="0%" y1="0%" x2="0%" y2="100%">
      <stop offset="0%" stop-color="#d1ccc0" />
      <stop offset="100%" stop-color="#786fa6" />
    </linearGradient>
  </defs>
  <rect width="1024" height="1024" fill="url(#sky)" />
  <circle cx="160" cy="160" r="82" fill="#fff3b0" opacity="0.85" />
  <ellipse cx="780" cy="170" rx="130" ry="55" fill="#ffffff" opacity="0.45" />
  <ellipse cx="640" cy="210" rx="100" ry="40" fill="#ffffff" opacity="0.3" />
  <rect x="0" y="700" width="1024" height="324" fill="url(#ground)" />
  <ellipse cx="512" cy="770" rx="240" ry="95" fill="#fffaf0" opacity="0.35" />
  <circle cx="512" cy="520" r="128" fill="#ffeaa7" />
  <polygon points="430,430 470,340 525,420" fill="#f6b93b" />
  <polygon points="600,430 645,350 690,430" fill="#f6b93b" />
  <ellipse cx="512" cy="560" rx="150" ry="120" fill="#f8c291" />
  <ellipse cx="450" cy="550" rx="18" ry="24" fill="#2d3436" />
  <ellipse cx="574" cy="550" rx="18" ry="24" fill="#2d3436" />
  <polygon points="512,585 485,620 539,620" fill="#e17055" />
  <path d="M430 620 Q512 690 594 620" stroke="#6d4c41" stroke-width="12" fill="none" stroke-linecap="round" />
  <path d="M360 560 Q250 520 205 430" stroke="#f8c291" stroke-width="28" fill="none" stroke-linecap="round" />
  <path d="M665 610 Q805 640 860 560" stroke="#f8c291" stroke-width="28" fill="none" stroke-linecap="round" />
  <rect x="120" y="820" width="784" height="120" rx="28" fill="#fffaf0" opacity="0.9" />
  <text x="160" y="890" font-family="Arial, sans-serif" font-size="28" fill="#4a3f35">우주선 내부, 공주 레아가 화려한 드레스를 입고 경쾌하게 웃고 있습니다. 한은 항해를 준비 중이고, 작은 로봇 알투가 두 캐릭터 주변을 재빠르게 돌아다니고 있습니다.</text>
</svg>